<svg width="13.926mm" height="8.4698mm" version="1.1" viewBox="0 0 13.926 8.4698" xmlns="http://www.w3.org/2000/svg"><g transform="translate(-87.116 -103.54)"><rect x="87.116" y="103.54" width="13.926" height="8.4698" ry=".15589" style="fill-rule:evenodd;fill:#ac9cc8;stroke-width:.01286"/><path d="m87.247 103.85 0.52896 0.37972 0.12654-0.17638-0.52896-0.37963zm0.70524 0.50627 0.52886 0.37962 0.12654-0.17628-0.52886-0.37973zm0.70515 0.50617 0.52896 0.37963 0.12654-0.17629-0.52896-0.37963zm0.70524 0.50617 0.52896 0.37972 0.12654-0.17638-0.52896-0.37963zm0.70524 0.50627 0.52886 0.37963 0.12654-0.17629-0.52886-0.37973zm0.70515 0.50617 0.52896 0.37963 0.12654-0.17629-0.52896-0.37963zm0.70524 0.50617 0.52886 0.37972 0.12664-0.17638-0.52896-0.37963zm0.70524 0.50627 0.52886 0.37963 0.12654-0.17629-0.52886-0.37972zm0.70515 0.50617 0.52896 0.37963 0.12654-0.17629-0.52896-0.37963zm0.70524 0.50617 0.50808 0.33608 0.01632-0.22681-0.39786-0.28555z" style="color-rendering:auto;color:#000000;dominant-baseline:auto;fill:#fff;font-feature-settings:normal;font-variant-alternates:normal;font-variant-caps:normal;font-variant-ligatures:normal;font-variant-numeric:normal;font-variant-position:normal;image-rendering:auto;isolation:auto;mix-blend-mode:normal;shape-padding:0;shape-rendering:auto;solid-color:#000000;text-decoration-color:#000000;text-decoration-line:none;text-decoration-style:solid;text-indent:0;text-orientation:mixed;text-transform:none;white-space:normal"/><path d="m100.3 104.06 0.12655 0.17638 0.52895-0.37972-0.12663-0.17629zm-0.70524 0.50627 0.12654 0.17628 0.52896-0.37962-0.12654-0.17639zm-0.70515 0.50617 0.12654 0.17629 0.52886-0.37963-0.12654-0.17629zm-0.70524 0.50617 0.12654 0.17638 0.52896-0.37972-0.12654-0.17629zm-0.70524 0.50627 0.12654 0.17629 0.52896-0.37963-0.12654-0.17639zm-0.70515 0.50617 0.12654 0.17629 0.52886-0.37963-0.12654-0.17629zm-0.70524 0.50617 0.12654 0.17638 0.52896-0.37972-0.12654-0.17629zm-0.70524 0.50627 0.12664 0.17629 0.52886-0.37963-0.12654-0.17638zm-0.70515 0.50617 0.12654 0.17629 0.52886-0.37963-0.12654-0.17629zm-0.55118 0.4121-2e-3 0.22639 0.50342-0.33566-0.12654-0.17628z" style="color-rendering:auto;color:#000000;dominant-baseline:auto;fill:#fff;font-feature-settings:normal;font-variant-alternates:normal;font-variant-caps:normal;font-variant-ligatures:normal;font-variant-numeric:normal;font-variant-position:normal;image-rendering:auto;isolation:auto;mix-blend-mode:normal;shape-padding:0;shape-rendering:auto;solid-color:#000000;text-decoration-color:#000000;text-decoration-line:none;text-decoration-style:solid;text-indent:0;text-orientation:mixed;text-transform:none;white-space:normal"/></g></svg>
